<svg width="40" height="40" viewBox="0 0 40 40" fill="none" xmlns="http://www.w3.org/2000/svg">
<path d="M39.5 0.5V39.5H0.5V0.5H39.5Z" fill="black" stroke="#252525"/>
<path d="M30.5822 15.1859C30.3524 14.3258 29.6748 13.6473 28.8143 13.4177C27.2541 13 21 13 21 13C21 13 14.7459 13 13.187 13.4177C12.3265 13.6473 11.6489 14.3258 11.4191 15.1859C11 16.7452 11 20 11 20C11 20 11 23.2548 11.4178 24.8141C11.6476 25.6742 12.3252 26.3527 13.1857 26.5823C14.7459 27 20.9987 27 20.9987 27C20.9987 27 27.2528 27 28.813 26.5823C29.6735 26.3527 30.3511 25.6742 30.5809 24.8141C30.9987 23.2548 30.9987 20 30.9987 20C30.9987 20 30.9987 16.7452 30.5809 15.1859H30.5822ZM18.954 22.9552V17.0448L24.1806 20L18.954 22.9552Z" fill="#E7E6D9"/>
</svg>
